<mxfile host="Electron" agent="Mozilla/5.0 (X11; Linux x86_64) AppleWebKit/537.36 (KHTML, like Gecko) draw.io/28.1.2 Chrome/138.0.7204.243 Electron/37.4.0 Safari/537.36" version="28.1.2">
  <diagram name="PÃ¡gina-1" id="d37o_2avaN0PcqjpAYrF">
    <mxGraphModel dx="872" dy="531" grid="1" gridSize="10" guides="1" tooltips="1" connect="1" arrows="1" fold="1" page="1" pageScale="1" pageWidth="827" pageHeight="1169" math="0" shadow="0">
      <root>
        <mxCell id="0" />
        <mxCell id="1" parent="0" />
        <mxCell id="0iMmQxnGmx084FuklWd5-11" value="" style="edgeStyle=orthogonalEdgeStyle;rounded=0;orthogonalLoop=1;jettySize=auto;html=1;" edge="1" parent="1" source="0iMmQxnGmx084FuklWd5-2" target="0iMmQxnGmx084FuklWd5-9">
          <mxGeometry relative="1" as="geometry" />
        </mxCell>
        <mxCell id="0iMmQxnGmx084FuklWd5-2" value="Nube" style="image;html=1;image=img/lib/clip_art/networking/Cloud_128x128.png" vertex="1" parent="1">
          <mxGeometry x="330" y="10" width="160" height="110" as="geometry" />
        </mxCell>
        <mxCell id="0iMmQxnGmx084FuklWd5-3" value="" style="image;html=1;image=img/lib/clip_art/computers/Database_128x128.png" vertex="1" parent="1">
          <mxGeometry x="590" y="36.25" width="50" height="55" as="geometry" />
        </mxCell>
        <mxCell id="0iMmQxnGmx084FuklWd5-4" value="" style="shape=flexArrow;endArrow=classic;html=1;rounded=0;width=7;endSize=7.44;entryX=0;entryY=0.5;entryDx=0;entryDy=0;" edge="1" parent="1" source="0iMmQxnGmx084FuklWd5-2" target="0iMmQxnGmx084FuklWd5-3">
          <mxGeometry width="50" height="50" relative="1" as="geometry">
            <mxPoint x="490" y="75" as="sourcePoint" />
            <mxPoint x="540" y="25" as="targetPoint" />
          </mxGeometry>
        </mxCell>
        <mxCell id="0iMmQxnGmx084FuklWd5-5" value="" style="image;html=1;image=img/lib/clip_art/computers/Software_128x128.png" vertex="1" parent="1">
          <mxGeometry x="590" y="100" width="50" height="52.5" as="geometry" />
        </mxCell>
        <mxCell id="0iMmQxnGmx084FuklWd5-7" value="" style="shape=flexArrow;endArrow=classic;html=1;rounded=0;width=7;endSize=7.44;entryX=0;entryY=0.5;entryDx=0;entryDy=0;" edge="1" parent="1" source="0iMmQxnGmx084FuklWd5-2" target="0iMmQxnGmx084FuklWd5-5">
          <mxGeometry width="50" height="50" relative="1" as="geometry">
            <mxPoint x="430" y="200" as="sourcePoint" />
            <mxPoint x="530" y="200" as="targetPoint" />
          </mxGeometry>
        </mxCell>
        <mxCell id="0iMmQxnGmx084FuklWd5-37" style="edgeStyle=orthogonalEdgeStyle;rounded=0;orthogonalLoop=1;jettySize=auto;html=1;exitX=1;exitY=0.5;exitDx=0;exitDy=0;" edge="1" parent="1" source="0iMmQxnGmx084FuklWd5-8" target="0iMmQxnGmx084FuklWd5-35">
          <mxGeometry relative="1" as="geometry" />
        </mxCell>
        <mxCell id="0iMmQxnGmx084FuklWd5-40" style="edgeStyle=orthogonalEdgeStyle;rounded=0;orthogonalLoop=1;jettySize=auto;html=1;exitX=0.5;exitY=1;exitDx=0;exitDy=0;" edge="1" parent="1" source="0iMmQxnGmx084FuklWd5-8" target="0iMmQxnGmx084FuklWd5-13">
          <mxGeometry relative="1" as="geometry" />
        </mxCell>
        <mxCell id="0iMmQxnGmx084FuklWd5-41" style="edgeStyle=orthogonalEdgeStyle;rounded=0;orthogonalLoop=1;jettySize=auto;html=1;exitX=0;exitY=0.5;exitDx=0;exitDy=0;" edge="1" parent="1" source="0iMmQxnGmx084FuklWd5-8" target="0iMmQxnGmx084FuklWd5-16">
          <mxGeometry relative="1" as="geometry" />
        </mxCell>
        <mxCell id="0iMmQxnGmx084FuklWd5-8" value="switch oficina" style="image;html=1;image=img/lib/clip_art/networking/Switch_128x128.png" vertex="1" parent="1">
          <mxGeometry x="390" y="320" width="80" height="80" as="geometry" />
        </mxCell>
        <mxCell id="0iMmQxnGmx084FuklWd5-12" style="edgeStyle=orthogonalEdgeStyle;rounded=0;orthogonalLoop=1;jettySize=auto;html=1;" edge="1" parent="1" source="0iMmQxnGmx084FuklWd5-9" target="0iMmQxnGmx084FuklWd5-8">
          <mxGeometry relative="1" as="geometry" />
        </mxCell>
        <mxCell id="0iMmQxnGmx084FuklWd5-9" value="Starlink" style="image;html=1;image=img/lib/clip_art/telecommunication/Signal_tower_on_128x128.png" vertex="1" parent="1">
          <mxGeometry x="360" y="180" width="80" height="70" as="geometry" />
        </mxCell>
        <mxCell id="0iMmQxnGmx084FuklWd5-10" style="edgeStyle=orthogonalEdgeStyle;rounded=0;orthogonalLoop=1;jettySize=auto;html=1;exitX=0.5;exitY=1;exitDx=0;exitDy=0;" edge="1" parent="1" source="0iMmQxnGmx084FuklWd5-9" target="0iMmQxnGmx084FuklWd5-9">
          <mxGeometry relative="1" as="geometry" />
        </mxCell>
        <mxCell id="0iMmQxnGmx084FuklWd5-28" style="edgeStyle=orthogonalEdgeStyle;rounded=0;orthogonalLoop=1;jettySize=auto;html=1;entryX=0.5;entryY=0;entryDx=0;entryDy=0;shape=link;" edge="1" parent="1" source="0iMmQxnGmx084FuklWd5-13" target="0iMmQxnGmx084FuklWd5-18">
          <mxGeometry relative="1" as="geometry" />
        </mxCell>
        <mxCell id="0iMmQxnGmx084FuklWd5-29" style="edgeStyle=orthogonalEdgeStyle;rounded=0;orthogonalLoop=1;jettySize=auto;html=1;shape=link;" edge="1" parent="1" source="0iMmQxnGmx084FuklWd5-13" target="0iMmQxnGmx084FuklWd5-20">
          <mxGeometry relative="1" as="geometry" />
        </mxCell>
        <mxCell id="0iMmQxnGmx084FuklWd5-34" style="edgeStyle=orthogonalEdgeStyle;rounded=0;orthogonalLoop=1;jettySize=auto;html=1;entryX=0.5;entryY=0;entryDx=0;entryDy=0;" edge="1" parent="1" source="0iMmQxnGmx084FuklWd5-13" target="0iMmQxnGmx084FuklWd5-33">
          <mxGeometry relative="1" as="geometry" />
        </mxCell>
        <mxCell id="0iMmQxnGmx084FuklWd5-13" value="router oficina" style="image;html=1;image=img/lib/clip_art/networking/Router_128x128.png" vertex="1" parent="1">
          <mxGeometry x="310" y="430" width="80" height="80" as="geometry" />
        </mxCell>
        <mxCell id="0iMmQxnGmx084FuklWd5-43" style="edgeStyle=orthogonalEdgeStyle;rounded=0;orthogonalLoop=1;jettySize=auto;html=1;entryX=0.5;entryY=0;entryDx=0;entryDy=0;" edge="1" parent="1" source="0iMmQxnGmx084FuklWd5-15" target="0iMmQxnGmx084FuklWd5-42">
          <mxGeometry relative="1" as="geometry" />
        </mxCell>
        <mxCell id="0iMmQxnGmx084FuklWd5-45" style="edgeStyle=orthogonalEdgeStyle;rounded=0;orthogonalLoop=1;jettySize=auto;html=1;" edge="1" parent="1" source="0iMmQxnGmx084FuklWd5-15" target="0iMmQxnGmx084FuklWd5-44">
          <mxGeometry relative="1" as="geometry" />
        </mxCell>
        <mxCell id="0iMmQxnGmx084FuklWd5-15" value="router planta 2&lt;div&gt;&lt;br&gt;&lt;/div&gt;" style="image;html=1;image=img/lib/clip_art/networking/Router_128x128.png" vertex="1" parent="1">
          <mxGeometry x="740" y="450" width="70" height="70" as="geometry" />
        </mxCell>
        <mxCell id="0iMmQxnGmx084FuklWd5-24" value="" style="edgeStyle=orthogonalEdgeStyle;rounded=0;orthogonalLoop=1;jettySize=auto;html=1;" edge="1" parent="1" source="0iMmQxnGmx084FuklWd5-16" target="0iMmQxnGmx084FuklWd5-23">
          <mxGeometry relative="1" as="geometry" />
        </mxCell>
        <mxCell id="0iMmQxnGmx084FuklWd5-16" value="repetidor" style="image;html=1;image=img/lib/clip_art/networking/Repeater_128x128.png" vertex="1" parent="1">
          <mxGeometry x="150" y="540" width="80" height="80" as="geometry" />
        </mxCell>
        <mxCell id="0iMmQxnGmx084FuklWd5-26" style="edgeStyle=orthogonalEdgeStyle;rounded=0;orthogonalLoop=1;jettySize=auto;html=1;" edge="1" parent="1" source="0iMmQxnGmx084FuklWd5-18" target="0iMmQxnGmx084FuklWd5-25">
          <mxGeometry relative="1" as="geometry" />
        </mxCell>
        <mxCell id="0iMmQxnGmx084FuklWd5-18" value="repetidor planta1" style="image;html=1;image=img/lib/clip_art/networking/Repeater_128x128.png" vertex="1" parent="1">
          <mxGeometry x="400" y="545" width="80" height="80" as="geometry" />
        </mxCell>
        <mxCell id="0iMmQxnGmx084FuklWd5-20" value="repetidor&lt;br&gt;galpon centro" style="image;html=1;image=img/lib/clip_art/networking/Repeater_128x128.png" vertex="1" parent="1">
          <mxGeometry x="500" y="545" width="80" height="80" as="geometry" />
        </mxCell>
        <mxCell id="0iMmQxnGmx084FuklWd5-23" value="" style="image;html=1;image=img/lib/clip_art/networking/Ip_Camera_128x128.png" vertex="1" parent="1">
          <mxGeometry x="150" y="680" width="50" height="50" as="geometry" />
        </mxCell>
        <mxCell id="0iMmQxnGmx084FuklWd5-25" value="Electronica" style="image;html=1;image=img/lib/clip_art/general/Ships_Wheel_128x128.png" vertex="1" parent="1">
          <mxGeometry x="380" y="670" width="50" height="50" as="geometry" />
        </mxCell>
        <mxCell id="0iMmQxnGmx084FuklWd5-33" value="conectividad oficina" style="image;html=1;image=img/lib/clip_art/computers/Network_128x128.png" vertex="1" parent="1">
          <mxGeometry x="230" y="790" width="80" height="80" as="geometry" />
        </mxCell>
        <mxCell id="0iMmQxnGmx084FuklWd5-39" style="edgeStyle=orthogonalEdgeStyle;rounded=0;orthogonalLoop=1;jettySize=auto;html=1;shape=link;" edge="1" parent="1" source="0iMmQxnGmx084FuklWd5-35" target="0iMmQxnGmx084FuklWd5-36">
          <mxGeometry relative="1" as="geometry" />
        </mxCell>
        <mxCell id="0iMmQxnGmx084FuklWd5-35" value="punto" style="image;html=1;image=img/lib/clip_art/telecommunication/Signal_tower_on_128x128.png" vertex="1" parent="1">
          <mxGeometry x="540" y="320" width="80" height="80" as="geometry" />
        </mxCell>
        <mxCell id="0iMmQxnGmx084FuklWd5-38" style="edgeStyle=orthogonalEdgeStyle;rounded=0;orthogonalLoop=1;jettySize=auto;html=1;exitX=0.5;exitY=1;exitDx=0;exitDy=0;" edge="1" parent="1" source="0iMmQxnGmx084FuklWd5-36" target="0iMmQxnGmx084FuklWd5-15">
          <mxGeometry relative="1" as="geometry" />
        </mxCell>
        <mxCell id="0iMmQxnGmx084FuklWd5-36" value="punto" style="image;html=1;image=img/lib/clip_art/telecommunication/Signal_tower_on_128x128.png" vertex="1" parent="1">
          <mxGeometry x="720" y="320" width="80" height="80" as="geometry" />
        </mxCell>
        <mxCell id="0iMmQxnGmx084FuklWd5-42" value="" style="image;html=1;image=img/lib/clip_art/computers/Network_128x128.png" vertex="1" parent="1">
          <mxGeometry x="735" y="620" width="80" height="80" as="geometry" />
        </mxCell>
        <mxCell id="0iMmQxnGmx084FuklWd5-44" value="" style="image;html=1;image=img/lib/clip_art/networking/Ip_Camera_128x128.png" vertex="1" parent="1">
          <mxGeometry x="650" y="540" width="50" height="50" as="geometry" />
        </mxCell>
      </root>
    </mxGraphModel>
  </diagram>
</mxfile>
